<svg xmlns="http://www.w3.org/2000/svg" width="43.349" height="33.119" viewBox="0 0 43.349 33.119">
  <g id="Layer_x0020_1" transform="translate(0 -5.115)">
    <g id="_214500072">
      <path id="_36727776" d="M11.731,17.642c-3.52,0-5.972,1.288-5.972,2.443s2.453,2.443,5.972,2.443S17.7,21.241,17.7,20.086,15.251,17.642,11.731,17.642Zm0,5.833a11.849,11.849,0,0,1-4.753-.9c-1.4-.632-2.166-1.517-2.166-2.493s.769-1.861,2.166-2.493a11.851,11.851,0,0,1,4.753-.9,11.851,11.851,0,0,1,4.753.9c1.4.632,2.166,1.518,2.166,2.493s-.769,1.861-2.166,2.493A11.851,11.851,0,0,1,11.731,23.476Z" fill="#202020" fill-rule="evenodd"/>
      <path id="_36727704" d="M11.731,27.165a11.851,11.851,0,0,1-4.753-.9c-1.4-.632-2.166-1.518-2.166-2.493a.473.473,0,0,1,.946,0c0,1.156,2.453,2.443,5.972,2.443S17.7,24.931,17.7,23.775a.473.473,0,1,1,.946,0c0,.976-.769,1.861-2.166,2.493A11.852,11.852,0,0,1,11.731,27.165Z" fill="#202020" fill-rule="evenodd"/>
      <path id="_36727344" d="M11.731,30.855a13.837,13.837,0,0,1-2.622-.242.473.473,0,1,1,.18-.929,12.9,12.9,0,0,0,2.442.225c3.52,0,5.972-1.288,5.972-2.443a.473.473,0,1,1,.946,0c0,.976-.769,1.861-2.166,2.493A11.851,11.851,0,0,1,11.731,30.855Z" fill="#202020" fill-rule="evenodd"/>
      <path id="_36728016" d="M11.731,34.544a14.4,14.4,0,0,1-1.8-.111.473.473,0,0,1,.119-.939,13.454,13.454,0,0,0,1.681.1c3.52,0,5.972-1.288,5.972-2.443a.473.473,0,1,1,.946,0c0,.976-.769,1.862-2.166,2.494a11.85,11.85,0,0,1-4.753.9Z" fill="#202020" fill-rule="evenodd"/>
      <path id="_36727464" d="M11.731,38.234a8.84,8.84,0,0,1-3.917-.567l-.285-.105a.473.473,0,1,1,.324-.889l.292.108a8.024,8.024,0,0,0,3.586.507c2.679,0,5.972-1.347,5.972-2.444V20.086a.473.473,0,1,1,.946,0V34.844c0,2.1-4.48,3.39-6.919,3.39Z" fill="#202020" fill-rule="evenodd"/>
      <path id="_36727728" d="M5.286,28.609a.473.473,0,0,1-.473-.473v-8.05a.473.473,0,0,1,.946,0v8.05A.473.473,0,0,1,5.286,28.609Z" fill="#202020" fill-rule="evenodd"/>
      <path id="_36727368" d="M5.246,36.146A1.841,1.841,0,0,1,3.517,34.93a.473.473,0,0,1,.891-.319.89.89,0,1,0,.9-1.188,1.836,1.836,0,0,1,.017-3.672,1.841,1.841,0,0,1,1.729,1.216.473.473,0,1,1-.891.319.89.89,0,1,0-1.467.93.882.882,0,0,0,.627.26H5.35a1.836,1.836,0,0,1-.1,3.669Z" fill="#202020" fill-rule="evenodd"/>
      <path id="_36727872" d="M5.286,36.835a.473.473,0,0,1-.473-.473V29.535a.473.473,0,0,1,.946,0v6.827A.473.473,0,0,1,5.286,36.835Z" fill="#202020" fill-rule="evenodd"/>
      <path id="_36727848" d="M5.286,28.609a4.339,4.339,0,1,0,4.339,4.339,4.344,4.344,0,0,0-4.339-4.339Zm0,9.625a5.286,5.286,0,1,1,5.286-5.286,5.292,5.292,0,0,1-5.286,5.286Z" fill="#202020" fill-rule="evenodd"/>
      <path id="_36727632" d="M26.79,38.234a16.5,16.5,0,0,1-8.938-2.618.473.473,0,1,1,.512-.8A15.613,15.613,0,1,0,11.8,17.306a.473.473,0,1,1-.909-.264,16.684,16.684,0,0,1,5.876-8.547A16.407,16.407,0,0,1,26.79,5.115a16.56,16.56,0,1,1,0,33.119Z" fill="#202020" fill-rule="evenodd"/>
      <path id="_36726840" d="M22.468,37.647a.478.478,0,0,1-.1-.01A.473.473,0,0,1,22,37.075l.921-4.333L17.94,29.864a.473.473,0,0,1,.473-.82l5.284,3.05a.473.473,0,0,1,.226.508l-.993,4.669a.474.474,0,0,1-.462.375Z" fill="#202020" fill-rule="evenodd"/>
      <path id="_36726792" d="M31.111,37.647a.473.473,0,0,1-.462-.375L29.656,32.6a.473.473,0,0,1,.226-.508l5.562-3.212a.473.473,0,0,1,.553.058l3.254,2.93a.473.473,0,0,1-.633.7l-3-2.7-4.967,2.868.921,4.333a.473.473,0,0,1-.365.561.479.479,0,0,1-.1.01Z" fill="#202020" fill-rule="evenodd"/>
      <path id="_36727224" d="M42.849,23.1h-.025l-4.475-.234a.473.473,0,0,1-.432-.35l-1.662-6.2a.473.473,0,0,1,.2-.519L40.444,13.2a.473.473,0,1,1,.515.794l-3.7,2.4,1.485,5.54,4.132.216a.473.473,0,0,1-.025.946Z" fill="#202020" fill-rule="evenodd"/>
      <path id="_36727128" d="M30,11.568H23.578a.473.473,0,0,1-.45-.327L21.573,6.453a.473.473,0,1,1,.9-.293l1.449,4.461h5.735L31.107,6.16a.473.473,0,1,1,.9.293l-1.556,4.788a.473.473,0,0,1-.45.327Z" fill="#202020" fill-rule="evenodd"/>
      <path id="_36726768" d="M16.367,18.532a.473.473,0,0,1-.457-.6l.413-1.543-3.7-2.4a.473.473,0,1,1,.515-.794l3.99,2.591a.473.473,0,0,1,.2.52l-.5,1.875a.473.473,0,0,1-.457.351Z" fill="#202020" fill-rule="evenodd"/>
      <path id="_36726864" d="M24.229,25.671h5.122L30.933,20.8,26.79,17.79,22.646,20.8Zm5.466.947H23.885a.473.473,0,0,1-.45-.327l-1.8-5.525a.473.473,0,0,1,.172-.529l4.7-3.415a.473.473,0,0,1,.556,0l4.7,3.415a.473.473,0,0,1,.172.529l-1.8,5.525a.473.473,0,0,1-.45.327Z" fill="#202020" fill-rule="evenodd"/>
      <path id="_36727200" d="M26.79,17.678a.473.473,0,0,1-.473-.473v-6.11a.473.473,0,1,1,.947,0V17.2a.473.473,0,0,1-.473.473Z" fill="#202020" fill-rule="evenodd"/>
      <path id="_36726552" d="M31.489,21.093a.473.473,0,0,1-.1-.935l6.052-1.333a.473.473,0,0,1,.2.924l-6.052,1.333A.466.466,0,0,1,31.489,21.093Z" fill="#202020" fill-rule="evenodd"/>
      <path id="_36727152" d="M22.09,21.093a.473.473,0,0,1-.1-.011l-3.956-.871a.473.473,0,1,1,.2-.924l3.956.871a.473.473,0,0,1-.1.935Z" fill="#202020" fill-rule="evenodd"/>
      <path id="_36727176" d="M20.679,31.372a.473.473,0,0,1-.392-.738l3.206-4.754a.473.473,0,1,1,.785.529l-3.206,4.754a.473.473,0,0,1-.393.209Z" fill="#202020" fill-rule="evenodd"/>
      <path id="_36727032" d="M32.9,31.372a.473.473,0,0,1-.393-.209L29.3,26.409a.473.473,0,1,1,.785-.529l3.206,4.754a.473.473,0,0,1-.392.738Z" fill="#202020" fill-rule="evenodd"/>
    </g>
  </g>
</svg>
