<svg xmlns="http://www.w3.org/2000/svg" width="125.318" height="38.44" viewBox="0 0 125.318 38.44">
  <g id="Group_81" data-name="Group 81" transform="translate(-16.682 -14)">
    <text id="MyLeague" transform="translate(63 40)" fill="#0d3005" font-size="17" font-family="Prometo-Italic, Prometo" font-style="italic"><tspan x="0" y="0">MyLeague</tspan></text>
    <g id="trophy" transform="translate(23.008 14) rotate(13)">
      <g id="Group_59" data-name="Group 59" transform="translate(9.891 26.156)">
        <path id="Path_69" data-name="Path 69" d="M164.677,401.265l-6.8-1.965-6.8,1.965a.8.8,0,0,0-.079.373V405.7h13.756v-4.061A.8.8,0,0,0,164.677,401.265Z" transform="translate(-151 -399.3)" fill="#646d73"/>
      </g>
      <path id="Path_70" data-name="Path 70" d="M262.878,405.7v-4.061a.8.8,0,0,0-.079-.373L256,399.3v6.4Z" transform="translate(-239.231 -373.144)" fill="#474f54"/>
      <path id="Path_71" data-name="Path 71" d="M32.556,1.965H27.535c.009-.332.042-.645.042-.983A.973.973,0,0,0,26.595,0H6.944a.973.973,0,0,0-.983.983c0,.338.034.651.042.983H.983A.982.982,0,0,0,0,2.948V5.437a10.328,10.328,0,0,0,9.811,10.23A9.74,9.74,0,0,0,13.8,19.023a14.682,14.682,0,0,1-3.616,8.784.7.7,0,0,0-.216.314h13.6a.7.7,0,0,0-.216-.314,14.494,14.494,0,0,1-3.616-8.784,9.766,9.766,0,0,0,4-3.357,10.327,10.327,0,0,0,9.8-10.229V2.948a.982.982,0,0,0-.983-.983ZM1.965,5.437V3.93H6.087a26.093,26.093,0,0,0,2.439,9.61A8.382,8.382,0,0,1,1.965,5.437Zm29.608,0a8.382,8.382,0,0,1-6.556,8.1A26.2,26.2,0,0,0,27.451,3.93h4.122Z" fill="#fed843"/>
      <path id="Path_72" data-name="Path 72" d="M271.787,1.965h-5.021c.009-.332.042-.645.042-.983A.973.973,0,0,0,265.826,0H256V28.121h6.8a.7.7,0,0,0-.216-.314,14.493,14.493,0,0,1-3.616-8.784,9.766,9.766,0,0,0,4-3.357,10.327,10.327,0,0,0,9.8-10.229V2.948a.982.982,0,0,0-.983-.983ZM270.8,5.437a8.382,8.382,0,0,1-6.556,8.1,26.193,26.193,0,0,0,2.434-9.608H270.8Z" transform="translate(-239.231)" fill="#fabe2c"/>
      <g id="Trophy_31_" transform="translate(12.517 4.465)">
        <g id="Group_60" data-name="Group 60">
          <path id="Path_73" data-name="Path 73" d="M196.9,76.2l-1.568-.815-1.568.815a.982.982,0,0,1-1.422-1.032l.288-1.745-1.257-1.241a.982.982,0,0,1,.543-1.671l1.746-.263.791-1.58a1.023,1.023,0,0,1,1.758,0l.791,1.58,1.746.263a.982.982,0,0,1,.543,1.671l-1.257,1.241.288,1.745A.982.982,0,0,1,196.9,76.2Z" transform="translate(-191.079 -68.167)" fill="#fabe2c"/>
        </g>
      </g>
      <path id="Path_74" data-name="Path 74" d="M257.568,76.2a.982.982,0,0,0,1.422-1.032l-.288-1.745,1.257-1.241a.982.982,0,0,0-.543-1.671l-1.746-.263-.791-1.58a.962.962,0,0,0-.879-.5v7.218Z" transform="translate(-239.231 -63.701)" fill="#ff9100"/>
      <g id="Group_61" data-name="Group 61" transform="translate(7.926 31.573)">
        <path id="Path_75" data-name="Path 75" d="M137.7,483.965H121.983a.983.983,0,0,1,0-1.965H137.7a.983.983,0,0,1,0,1.965Z" transform="translate(-121 -482)" fill="#474f54"/>
      </g>
      <path id="Path_76" data-name="Path 76" d="M263.861,482H256v1.965h7.861a.983.983,0,1,0,0-1.965Z" transform="translate(-239.231 -450.427)" fill="#32393f"/>
    </g>
  </g>
</svg>
