<svg xmlns="http://www.w3.org/2000/svg" width="27.528" height="35.236" viewBox="0 0 27.528 35.236">
  <g id="soccer-player" transform="translate(-7 0)">
    <g id="Group_52" data-name="Group 52" transform="translate(7 0)">
      <g id="Group_32" data-name="Group 32" transform="translate(6.056)">
        <g id="Group_31" data-name="Group 31">
          <g id="Group_30" data-name="Group 30">
            <path id="Path_54" data-name="Path 54" d="M30.465.128a.55.55,0,0,0-.81.117c-.938,1.407-2.995,1.407-5.6,1.407C20.151,1.652,18,3.8,18,7.708v1.85a.551.551,0,0,0,.639.543,1.2,1.2,0,0,1,.707.267.551.551,0,0,0,.695-.069,6.862,6.862,0,0,0,1.747-3.431,20.591,20.591,0,0,0,4.2.529c1.618.105,3.834.249,4.285.7a6.94,6.94,0,0,1,.968,1.987.551.551,0,0,0,.827.284,1.207,1.207,0,0,1,.707-.267.551.551,0,0,0,.637-.495c.024-.268.536-6.575-2.948-9.479Z" transform="translate(-18 0)" fill="#bd9b7b"/>
          </g>
        </g>
      </g>
      <g id="Group_35" data-name="Group 35" transform="translate(0 16.434)">
        <g id="Group_34" data-name="Group 34">
          <g id="Group_33" data-name="Group 33">
            <path id="Path_55" data-name="Path 55" d="M29.944,33.863l-4-1a.558.558,0,0,1-.4-.4L25,30.283a.551.551,0,0,0-.9-.276,5.612,5.612,0,0,1-3.331,1.577,5.653,5.653,0,0,1-3.326-1.593.551.551,0,0,0-.9.275l-.55,2.2a.558.558,0,0,1-.4.4l-4,1A6.053,6.053,0,0,0,7,39.738V48.1a.551.551,0,0,0,.551.551H33.978a.551.551,0,0,0,.551-.551V39.738a6.054,6.054,0,0,0-4.585-5.875Z" transform="translate(-7 -29.85)" fill="#f0d0b4"/>
          </g>
        </g>
      </g>
      <g id="Group_40" data-name="Group 40" transform="translate(5.508 5.505)">
        <g id="Group_39" data-name="Group 39">
          <g id="Group_38" data-name="Group 38">
            <g id="Group_37" data-name="Group 37">
              <g id="Group_36" data-name="Group 36">
                <path id="Path_56" data-name="Path 56" d="M32.281,13.492a1.782,1.782,0,0,0-.663.137c-.913-2.307-1.205-2.524-6-2.837-5.09-.33-4.16-.793-4.758-.793a.551.551,0,0,0-.55.551,5.33,5.33,0,0,1-1.227,3.158,1.988,1.988,0,0,0-.843-.217c-.993,0-1.348.9-1.2,1.9a2.919,2.919,0,0,0,1.276,2.07,1.794,1.794,0,0,0,.435.185c.591,3.5,4.16,6.121,6.512,6.121,2.189,0,5.886-2.393,6.512-6.123a1.812,1.812,0,0,0,.54-.248,3.114,3.114,0,0,0,1.207-2.438c-.018-1-.527-1.463-1.238-1.463Z" transform="translate(-17.004 -9.999)" fill="#f5e0cd"/>
              </g>
            </g>
          </g>
        </g>
      </g>
      <g id="Group_43" data-name="Group 43" transform="translate(0 28.079)">
        <g id="Group_42" data-name="Group 42">
          <g id="Group_41" data-name="Group 41">
            <path id="Path_57" data-name="Path 57" d="M13.607,57.607a.551.551,0,0,1-.551.551H7.551A.551.551,0,0,1,7,57.607V51h6.607Z" transform="translate(-7 -51)" fill="#f5e0cd"/>
          </g>
        </g>
      </g>
      <g id="Group_46" data-name="Group 46" transform="translate(20.922 28.079)">
        <g id="Group_45" data-name="Group 45">
          <g id="Group_44" data-name="Group 44">
            <path id="Path_58" data-name="Path 58" d="M45,57.607a.551.551,0,0,0,.551.551h5.506a.551.551,0,0,0,.551-.551V51H45Z" transform="translate(-45 -51)" fill="#f5e0cd"/>
          </g>
        </g>
      </g>
      <g id="Group_51" data-name="Group 51" transform="translate(14.315 2.761)">
        <g id="Group_50" data-name="Group 50">
          <g id="Group_49" data-name="Group 49">
            <g id="Group_48" data-name="Group 48">
              <g id="Group_47" data-name="Group 47">
                <path id="Path_59" data-name="Path 59" d="M33.551,7.209a.551.551,0,1,1,0-1.1c1.783,0,2.248-.777,2.267-.81a.558.558,0,0,1,.742-.219A.544.544,0,0,1,36.8,5.8C36.724,5.947,36.022,7.209,33.551,7.209Z" transform="translate(-33 -5.015)" fill="#c8ad90"/>
              </g>
            </g>
          </g>
        </g>
      </g>
    </g>
    <path id="Path_60" data-name="Path 60" d="M33.07,35.193l-1.652-1.1a.555.555,0,0,0-.471-.06.569.569,0,0,0-.351.329c-.006.013-.612,1.43-4.439,2.9-3.825-1.474-4.432-2.889-4.433-2.889a.55.55,0,0,0-.827-.284l-1.652,1.1a.552.552,0,0,0-.152.765A10.907,10.907,0,0,0,20.9,37.906a12.342,12.342,0,0,0,5.121,2.684.553.553,0,0,0,.134.017.573.573,0,0,0,.133-.016,12.347,12.347,0,0,0,5.121-2.683,10.92,10.92,0,0,0,1.809-1.948.552.552,0,0,0-.151-.765Z" transform="translate(-5.393 -15.28)" fill="#70b2e2"/>
    <g id="Group_53" data-name="Group 53" transform="translate(7 19.82)">
      <path id="Path_61" data-name="Path 61" d="M44.725,36.627l-2.439-.611a.55.55,0,0,0-.59.226,10.028,10.028,0,0,1-1.616,1.73.551.551,0,0,0,.226.95l3.617.908a2.75,2.75,0,0,1,2.083,2.67v5.06a.55.55,0,0,0,.551.551h2.2a.55.55,0,0,0,.551-.551V42.5A6.052,6.052,0,0,0,44.725,36.627Z" transform="translate(-21.782 -35.999)" fill="#95c8ec"/>
      <path id="Path_62" data-name="Path 62" d="M14.614,36.242a.549.549,0,0,0-.59-.226l-2.44.611A6.053,6.053,0,0,0,7,42.5v5.06a.55.55,0,0,0,.551.551h2.2a.55.55,0,0,0,.551-.551V42.5a2.75,2.75,0,0,1,2.083-2.67L16,38.923a.551.551,0,0,0,.226-.95A10.049,10.049,0,0,1,14.614,36.242Z" transform="translate(-7 -35.999)" fill="#95c8ec"/>
    </g>
    <path id="Path_63" data-name="Path 63" d="M34.124,44a3.848,3.848,0,0,0-2.916-3.738l-3.617-.908a.544.544,0,0,0-.494.118,11.27,11.27,0,0,1-4.534,2.413,11.262,11.262,0,0,1-4.534-2.414.549.549,0,0,0-.494-.118l-3.617.908A3.849,3.849,0,0,0,11,44v5.611h3.3v2.753a.55.55,0,0,0,.551.551H30.27a.55.55,0,0,0,.551-.551V49.613h3.3Z" transform="translate(-1.798 -17.68)" fill="#478fcc"/>
    <circle id="Ellipse_3" data-name="Ellipse 3" cx="1.5" cy="1.5" r="1.5" transform="translate(24 28)" fill="#95c8ec"/>
    <g id="Group_54" data-name="Group 54" transform="translate(12.506 28.079)">
      <path id="Path_64" data-name="Path 64" d="M45.551,51a.55.55,0,0,0-.551.551v6.056a.551.551,0,1,0,1.1,0V51.551A.55.55,0,0,0,45.551,51Z" transform="translate(-29.584 -51)" fill="#3d82c4"/>
      <path id="Path_65" data-name="Path 65" d="M17.551,51a.55.55,0,0,0-.551.551v6.056a.551.551,0,1,0,1.1,0V51.551A.55.55,0,0,0,17.551,51Z" transform="translate(-17 -51)" fill="#3d82c4"/>
    </g>
    <g id="Group_55" data-name="Group 55" transform="translate(7 0.001)">
      <path id="Path_66" data-name="Path 66" d="M34.528,26.323a6.048,6.048,0,0,0-4.585-5.875L27.6,19.86l-1.573-1.048a.555.555,0,0,0-.471-.06.589.589,0,0,0-.074.043l-.4-1.616a7.454,7.454,0,0,0,2.2-4.029A2.72,2.72,0,0,0,28.987,10.9a2.494,2.494,0,0,0,0-.862,1.172,1.172,0,0,0-.488-.8c.066-1.442.069-6.569-2.973-9.1a.551.551,0,0,0-.81.117c-.938,1.406-3,1.406-5.6,1.406-3.905,0-6.056,2.151-6.056,6.056V9.216a1.167,1.167,0,0,0-.51.818,2.5,2.5,0,0,0-.006.861,2.716,2.716,0,0,0,1.71,2.253,7.23,7.23,0,0,0,2.2,4.026l-.4,1.614a.521.521,0,0,0-.063-.039.549.549,0,0,0-.484.063L13.931,19.86l-2.345.588A6.048,6.048,0,0,0,7,26.323v8.362a.551.551,0,1,0,1.1,0V31.933h4.4v2.753a.551.551,0,1,0,1.1,0V28.629a.551.551,0,1,0-1.1,0v2.2H10.3V26.323a2.751,2.751,0,0,1,2.085-2.671l3.34-.837a12.4,12.4,0,0,0,4.9,2.494.52.52,0,0,0,.133.017.545.545,0,0,0,.133-.017,12.411,12.411,0,0,0,4.9-2.494l3.34.837a2.751,2.751,0,0,1,2.084,2.671v4.508h-2.2v-2.2a.551.551,0,1,0-1.1,0v6.056a.551.551,0,1,0,1.1,0V31.933h4.4v2.753a.551.551,0,1,0,1.1,0ZM24.474,19.312a1.632,1.632,0,0,0,.189.447,11.432,11.432,0,0,1-3.9,2.226,11.489,11.489,0,0,1-3.9-2.224,1.651,1.651,0,0,0,.189-.447l.339-1.358a6.309,6.309,0,0,0,3.371,1.315,6.079,6.079,0,0,0,3.376-1.3Zm3.387-9.19a1.154,1.154,0,0,1,.039.6,2.105,2.105,0,0,1-.529,1.11V10.227C27.477,10.174,27.772,10.044,27.861,10.122Zm-13.7,1.715a2.093,2.093,0,0,1-.529-1.111,1.155,1.155,0,0,1,.039-.6c.086-.075.373.046.49.1Zm0-2.78V7.708c0-3.288,1.667-4.955,4.955-4.955,2.544,0,4.773,0,6.113-1.4C27.37,3.6,27.438,7.684,27.4,9.051a.973.973,0,0,0-.272.09,6.074,6.074,0,0,0-1.015-1.822c-.694-.694-2.349-.848-4.992-1.02-1.766-.115-3.768-.244-4.451-.7a.551.551,0,0,0-.856.458,5.333,5.333,0,0,1-1.227,3.158,1.624,1.624,0,0,0-.425-.157Zm1.1,1.065a6.779,6.779,0,0,0,1.586-3.254,20.584,20.584,0,0,0,4.2.529c1.618.105,3.834.249,4.285.7A6.691,6.691,0,0,1,26.269,10v2.109c0,3.352-3.39,6.056-5.506,6.056-1.885,0-5.506-2.557-5.506-6.056v-1.99ZM12.121,22.585A3.849,3.849,0,0,0,9.2,26.323v4.508H8.1V26.323a4.948,4.948,0,0,1,3.752-4.807l2.081-.522a10.832,10.832,0,0,0,.819.93Zm8.643,1.623A11.613,11.613,0,0,1,14.953,20.5l.685-.456c1.062,1.382,3.291,2.429,4.931,3.044a.557.557,0,0,0,.387,0c1.64-.615,3.869-1.662,4.931-3.044l.687.458a11.559,11.559,0,0,1-5.811,3.7Zm11.562,6.624V26.323a3.849,3.849,0,0,0-2.918-3.739l-2.633-.66a10.833,10.833,0,0,0,.819-.93l2.081.522a4.948,4.948,0,0,1,3.752,4.807v4.508Z" transform="translate(-7 -0.001)" fill="#002d6b"/>
      <path id="Path_67" data-name="Path 67" d="M38.652,51A1.652,1.652,0,1,0,40.3,52.651,1.654,1.654,0,0,0,38.652,51Zm0,2.2a.551.551,0,1,1,.551-.551A.551.551,0,0,1,38.652,53.2Z" transform="translate(-20.483 -22.921)" fill="#002d6b"/>
      <path id="Path_68" data-name="Path 68" d="M33.551,7.208c2.471,0,3.173-1.262,3.246-1.406a.544.544,0,0,0-.237-.725.558.558,0,0,0-.742.219c-.019.034-.484.81-2.267.81a.551.551,0,1,0,0,1.1Z" transform="translate(-18.685 -2.254)" fill="#002d6b"/>
    </g>
  </g>
</svg>
