<svg xmlns="http://www.w3.org/2000/svg" width="20.107" height="20.112" viewBox="0 0 20.107 20.112">
  <g id="special-offer" transform="translate(-7.339 -7.3)">
    <path id="Path_16" data-name="Path 16" d="M7.544,262.742a9.82,9.82,0,0,0,2.137,5.878" transform="translate(0 -245.122)" fill="none" stroke="#0d3004" stroke-linecap="round" stroke-linejoin="round" stroke-width="0.4"/>
    <path id="Path_17" data-name="Path 17" d="M22.269,8.086A9.872,9.872,0,0,0,9.116,16.208" transform="translate(-1.51)" fill="none" stroke="#0d3004" stroke-linecap="round" stroke-linejoin="round" stroke-width="0.4"/>
    <path id="Path_18" data-name="Path 18" d="M374.531,37.614a9.832,9.832,0,0,0-1.714-1.157" transform="translate(-350.79 -27.809)" fill="none" stroke="#0d3004" stroke-linecap="round" stroke-linejoin="round" stroke-width="0.4"/>
    <path id="Path_19" data-name="Path 19" d="M452.64,110.61a9.9,9.9,0,0,0-1.688-9.02" transform="translate(-425.827 -90.359)" fill="none" stroke="#0d3004" stroke-linecap="round" stroke-linejoin="round" stroke-width="0.4"/>
    <path id="Path_20" data-name="Path 20" d="M277.746,367.377a9.8,9.8,0,0,0,4.789-1.745h0l2.7,1.736a.4.4,0,0,0,.577-.409l-.57-4.181h0a9.842,9.842,0,0,0,.559-1.024" transform="translate(-259.489 -340.209)" fill="none" stroke="#0d3004" stroke-linecap="round" stroke-linejoin="round" stroke-width="0.4"/>
    <path id="Path_21" data-name="Path 21" d="M96.762,447.116a9.806,9.806,0,0,0,5.788,2.262" transform="translate(-85.681 -422.186)" fill="none" stroke="#0d3004" stroke-linecap="round" stroke-linejoin="round" stroke-width="0.4"/>
    <path id="Path_22" data-name="Path 22" d="M118.563,417.573a8.625,8.625,0,0,0,11.235-.291" transform="translate(-106.617 -393.535)" fill="none" stroke="#0d3004" stroke-linecap="round" stroke-linejoin="round" stroke-width="0.4"/>
    <path id="Path_23" data-name="Path 23" d="M121.278,40.455A8.625,8.625,0,0,0,110,40.714" transform="translate(-98.398 -29.756)" fill="none" stroke="#0d3004" stroke-linecap="round" stroke-linejoin="round" stroke-width="0.4"/>
    <path id="Path_24" data-name="Path 24" d="M54.346,379.279a2.843,2.843,0,0,1-1.562-1.562,2.843,2.843,0,0,1-1.562,1.562,2.844,2.844,0,0,1,1.562,1.562A2.844,2.844,0,0,1,54.346,379.279Z" transform="translate(-41.946 -355.538)" fill="none" stroke="#0d3004" stroke-linecap="round" stroke-linejoin="round" stroke-width="0.4"/>
    <path id="Path_25" data-name="Path 25" d="M386.126,57.063a2.843,2.843,0,0,1-1.562-1.562A2.844,2.844,0,0,1,383,57.063a2.844,2.844,0,0,1,1.562,1.562A2.843,2.843,0,0,1,386.126,57.063Z" transform="translate(-360.572 -46.098)" fill="none" stroke="#0d3004" stroke-linecap="round" stroke-linejoin="round" stroke-width="0.4"/>
    <g id="Group_15" data-name="Group 15" transform="translate(9.552 13.965)">
      <g id="Group_8" data-name="Group 8" transform="translate(11.642 0)">
        <path id="Path_26" data-name="Path 26" d="M351.811,173.122l.958-2.514a.079.079,0,0,1,.074-.051h0a.079.079,0,0,1,.074.051l.949,2.514" transform="translate(-351.811 -170.557)" fill="none" stroke="#0d3004" stroke-linecap="round" stroke-linejoin="round" stroke-width="0.4"/>
        <line id="Line_4" data-name="Line 4" x2="1.45" transform="translate(0.305 1.926)" fill="none" stroke="#0d3004" stroke-linecap="round" stroke-linejoin="round" stroke-width="0.4"/>
      </g>
      <g id="Group_9" data-name="Group 9" transform="translate(14.784 0)">
        <path id="Path_27" data-name="Path 27" d="M431.056,170.557v2.565h.9" transform="translate(-431.056 -170.557)" fill="none" stroke="#0d3004" stroke-linecap="round" stroke-linejoin="round" stroke-width="0.4"/>
      </g>
      <g id="Group_10" data-name="Group 10" transform="translate(10.532 0)">
        <line id="Line_5" data-name="Line 5" y2="2.565" fill="none" stroke="#0d3004" stroke-linecap="round" stroke-linejoin="round" stroke-width="0.4"/>
      </g>
      <g id="Group_11" data-name="Group 11" transform="translate(5.321 0)">
        <path id="Path_28" data-name="Path 28" d="M193.455,170.557h-1.081v2.565h1.081" transform="translate(-192.374 -170.557)" fill="none" stroke="#0d3004" stroke-linecap="round" stroke-linejoin="round" stroke-width="0.4"/>
        <line id="Line_6" data-name="Line 6" x1="0.954" transform="translate(0.006 1.283)" fill="none" stroke="#0d3004" stroke-linecap="round" stroke-linejoin="round" stroke-width="0.4"/>
      </g>
      <g id="Group_12" data-name="Group 12" transform="translate(7.365 0)">
        <path id="Path_29" data-name="Path 29" d="M245.942,170.776a1.283,1.283,0,1,0-.717,2.346,1.01,1.01,0,0,0,.808-.362" transform="translate(-243.942 -170.557)" fill="none" stroke="#0d3004" stroke-linecap="round" stroke-linejoin="round" stroke-width="0.4"/>
      </g>
      <g id="Group_13" data-name="Group 13">
        <path id="Path_30" data-name="Path 30" d="M59.762,170.82a1.17,1.17,0,0,0-1-.223.536.536,0,0,0-.208.96,3.45,3.45,0,0,0,.746.3c.9.306.538,1.262-.223,1.262a1.211,1.211,0,0,1-.894-.38" transform="translate(-58.181 -170.557)" fill="none" stroke="#0d3004" stroke-linecap="round" stroke-linejoin="round" stroke-width="0.4"/>
      </g>
      <g id="Group_14" data-name="Group 14" transform="translate(2.778 0)">
        <line id="Line_7" data-name="Line 7" y2="1.115" transform="translate(0 1.45)" fill="none" stroke="#0d3004" stroke-linecap="round" stroke-linejoin="round" stroke-width="0.4"/>
        <path id="Path_31" data-name="Path 31" d="M129.7,171.281a.738.738,0,0,1-.738.726h-.713v-1.45h.713A.736.736,0,0,1,129.7,171.281Z" transform="translate(-128.25 -170.557)" fill="none" stroke="#0d3004" stroke-linecap="round" stroke-linejoin="round" stroke-width="0.4"/>
      </g>
    </g>
    <g id="Group_20" data-name="Group 20" transform="translate(11.674 18.175)">
      <g id="Group_16" data-name="Group 16" transform="translate(3.668)">
        <path id="Path_32" data-name="Path 32" d="M205.267,276.742h-1.04v2.565" transform="translate(-204.227 -276.742)" fill="none" stroke="#0d3004" stroke-linecap="round" stroke-linejoin="round" stroke-width="0.4"/>
        <line id="Line_8" data-name="Line 8" x2="0.938" transform="translate(0.019 1.258)" fill="none" stroke="#0d3004" stroke-linecap="round" stroke-linejoin="round" stroke-width="0.4"/>
      </g>
      <g id="Group_17" data-name="Group 17" transform="translate(5.787)">
        <path id="Path_33" data-name="Path 33" d="M258.706,276.742h-1.04v2.565" transform="translate(-257.666 -276.742)" fill="none" stroke="#0d3004" stroke-linecap="round" stroke-linejoin="round" stroke-width="0.4"/>
        <line id="Line_9" data-name="Line 9" x2="0.938" transform="translate(0.019 1.258)" fill="none" stroke="#0d3004" stroke-linecap="round" stroke-linejoin="round" stroke-width="0.4"/>
      </g>
      <g id="Group_18" data-name="Group 18" transform="translate(7.861)">
        <path id="Path_34" data-name="Path 34" d="M311.063,276.742h-1.081v2.565h1.081" transform="translate(-309.982 -276.742)" fill="none" stroke="#0d3004" stroke-linecap="round" stroke-linejoin="round" stroke-width="0.4"/>
        <line id="Line_10" data-name="Line 10" x1="0.954" transform="translate(0.006 1.283)" fill="none" stroke="#0d3004" stroke-linecap="round" stroke-linejoin="round" stroke-width="0.4"/>
      </g>
      <g id="Group_19" data-name="Group 19" transform="translate(10.053)">
        <line id="Line_11" data-name="Line 11" x2="1.078" y2="1.229" transform="translate(0.308 1.337)" fill="none" stroke="#0d3004" stroke-linecap="round" stroke-linejoin="round" stroke-width="0.4"/>
        <line id="Line_12" data-name="Line 12" y2="1.229" transform="translate(0 1.337)" fill="none" stroke="#0d3004" stroke-linecap="round" stroke-linejoin="round" stroke-width="0.4"/>
        <path id="Path_35" data-name="Path 35" d="M366.651,277.409a.694.694,0,0,1-.7.67h-.681v-1.337h.681A.691.691,0,0,1,366.651,277.409Z" transform="translate(-365.266 -276.742)" fill="none" stroke="#0d3004" stroke-linecap="round" stroke-linejoin="round" stroke-width="0.4"/>
      </g>
      <circle id="Ellipse_2" data-name="Ellipse 2" cx="1.283" cy="1.283" r="1.283" transform="translate(0 0)" fill="none" stroke="#0d3004" stroke-linecap="round" stroke-linejoin="round" stroke-width="0.4"/>
    </g>
    <path id="Path_36" data-name="Path 36" d="M443.362,387.586a9.888,9.888,0,0,1-.967,1.3" transform="translate(-417.61 -365.016)" fill="none" stroke="#0d3004" stroke-linecap="round" stroke-linejoin="round" stroke-width="0.4"/>
    <g id="Group_21" data-name="Group 21" transform="translate(14.17 10.512)">
      <line id="Line_13" data-name="Line 13" x2="2.045" transform="translate(4.401 12.434)" fill="none" stroke="#0d3004" stroke-linecap="round" stroke-linejoin="round" stroke-width="0.4"/>
      <line id="Line_14" data-name="Line 14" x2="2.045" transform="translate(0 12.434)" fill="none" stroke="#0d3004" stroke-linecap="round" stroke-linejoin="round" stroke-width="0.4"/>
      <path id="Path_37" data-name="Path 37" d="M229.522,369.516a2.073,2.073,0,0,1-1.138-1.138,2.072,2.072,0,0,1-1.138,1.138,2.072,2.072,0,0,1,1.138,1.138A2.073,2.073,0,0,1,229.522,369.516Z" transform="translate(-225.16 -357.082)" fill="none" stroke="#0d3004" stroke-linecap="round" stroke-linejoin="round" stroke-width="0.4"/>
      <line id="Line_15" data-name="Line 15" x2="2.045" transform="translate(4.401 1.138)" fill="none" stroke="#0d3004" stroke-linecap="round" stroke-linejoin="round" stroke-width="0.4"/>
      <line id="Line_16" data-name="Line 16" x2="2.045" transform="translate(0 1.138)" fill="none" stroke="#0d3004" stroke-linecap="round" stroke-linejoin="round" stroke-width="0.4"/>
      <path id="Path_38" data-name="Path 38" d="M229.522,84.613a2.073,2.073,0,0,1-1.138-1.138,2.072,2.072,0,0,1-1.138,1.138,2.072,2.072,0,0,1,1.138,1.138A2.073,2.073,0,0,1,229.522,84.613Z" transform="translate(-225.16 -83.475)" fill="none" stroke="#0d3004" stroke-linecap="round" stroke-linejoin="round" stroke-width="0.4"/>
    </g>
  </g>
</svg>
