<svg xmlns="http://www.w3.org/2000/svg" width="21.228" height="21.228" viewBox="0 0 21.228 21.228">
  <g id="tag" transform="translate(-0.001 0)">
    <g id="Group_23" data-name="Group 23" transform="translate(0.001 0.001)">
      <g id="Group_22" data-name="Group 22">
        <path id="Path_39" data-name="Path 39" d="M21.047.183a.622.622,0,0,0-.88,0L18.356,1.994A1.87,1.87,0,0,0,18,1.868L12.375.477A1.875,1.875,0,0,0,10.6.968L.547,11.008a1.868,1.868,0,0,0,0,2.639l7.036,7.036a1.868,1.868,0,0,0,2.639,0l10.04-10.057a1.875,1.875,0,0,0,.491-1.772L19.362,3.225a1.874,1.874,0,0,0-.126-.352l1.811-1.811A.622.622,0,0,0,21.047.183Zm-1.5,8.973a.625.625,0,0,1-.164.591L9.342,19.8a.623.623,0,0,1-.88,0L1.426,12.767a.623.623,0,0,1,0-.88L11.483,1.847a.625.625,0,0,1,.441-.182.617.617,0,0,1,.149.018l5.288,1.305-1.5,1.5a1.866,1.866,0,1,0,.88.88l1.5-1.5ZM15.5,6.61a.622.622,0,1,1,0-.88h0A.623.623,0,0,1,15.5,6.61Z" transform="translate(-0.001 -0.001)" fill="#0e2f05"/>
      </g>
    </g>
    <g id="Group_25" data-name="Group 25" transform="translate(7.038 6.944)">
      <g id="Group_24" data-name="Group 24">
        <path id="Path_40" data-name="Path 40" d="M172.9,168.016a1.866,1.866,0,1,0,0,2.639A1.868,1.868,0,0,0,172.9,168.016Zm-.88,1.759a.622.622,0,1,1,0-.88A.623.623,0,0,1,172.017,169.775Z" transform="translate(-169.712 -167.471)" fill="#0e2f05"/>
      </g>
    </g>
    <g id="Group_27" data-name="Group 27" transform="translate(7.917 13.1)">
      <g id="Group_26" data-name="Group 26">
        <path id="Path_41" data-name="Path 41" d="M194.11,316.484a1.866,1.866,0,1,0,0,2.639A1.865,1.865,0,0,0,194.11,316.484Zm-.88,1.759a.622.622,0,1,1,0-.88A.622.622,0,0,1,193.23,318.243Z" transform="translate(-190.926 -315.937)" fill="#0e2f05"/>
      </g>
    </g>
    <g id="Group_29" data-name="Group 29" transform="translate(4.762 10.826)">
      <g id="Group_28" data-name="Group 28">
        <path id="Path_42" data-name="Path 42" d="M123.991,261.644a.622.622,0,0,0-.687-.549l-7.916.88a.622.622,0,0,0,.068,1.24.636.636,0,0,0,.069,0l7.916-.88A.622.622,0,0,0,123.991,261.644Z" transform="translate(-114.835 -261.091)" fill="#0e2f05"/>
      </g>
    </g>
  </g>
</svg>
